<?xml version="1.0" standalone="no"?>
<!DOCTYPE svg PUBLIC "-//W3C//DTD SVG 20010904//EN"
 "http://www.w3.org/TR/2001/REC-SVG-20010904/DTD/svg10.dtd">
<svg version="1.0" xmlns="http://www.w3.org/2000/svg"
 width="128.000000pt" height="128.000000pt" viewBox="0 0 128.000000 128.000000"
 preserveAspectRatio="xMidYMid meet">

<g transform="translate(0.000000,128.000000) scale(0.100000,-0.100000)"
fill="#000000" stroke="none">
<path d="M70 635 l0 -575 575 0 575 0 0 575 0 575 -575 0 -575 0 0 -575z
m1120 0 l0 -545 -545 0 -545 0 0 545 0 545 545 0 545 0 0 -545z"/>
<path d="M810 1068 c-67 -45 -107 -200 -77 -294 9 -27 17 -67 19 -88 3 -39 4
-40 63 -58 71 -21 95 -22 95 -5 0 6 14 47 30 90 36 91 49 208 31 274 -25 91
-94 126 -161 81z"/>
<path d="M331 917 c-49 -24 -66 -72 -66 -182 1 -89 5 -109 33 -180 18 -44 32
-86 32 -92 0 -17 24 -16 94 5 56 17 59 19 62 52 2 19 11 61 21 93 14 50 15 69
6 123 -25 147 -101 223 -182 181z"/>
<path d="M717 553 c-36 -92 -30 -149 19 -172 33 -15 49 -14 85 5 32 16 65 75
71 128 3 28 1 29 -77 52 -44 13 -81 24 -81 24 -1 0 -9 -17 -17 -37z"/>
<path d="M427 405 c-43 -13 -80 -25 -81 -26 -8 -9 23 -103 41 -127 41 -55 129
-50 153 9 13 30 2 101 -23 145 l-12 21 -78 -22z"/>
</g>
</svg>
